Coordinates
version=1
nRows=6
nColumns=36
inDegrees=yes

Units are S.I. units (second, meters, Newtons, ...)
If the header above contains a line with 'inDegrees', this indicates whether rotational values are in degrees (yes) or radians (no).

endheader
time	pelvis_tilt	pelvis_list	pelvis_rotation	pelvis_tx	pelvis_ty	pelvis_tz	hip_flexion_r	hip_adduction_r	hip_rotation_r	knee_angle_r	knee_angle_r_beta	ankle_angle_r	subtalar_angle_r	mtp_angle_r	hip_flexion_l	hip_adduction_l	hip_rotation_l	knee_angle_l	knee_angle_l_beta	ankle_angle_l	subtalar_angle_l	mtp_angle_l	lumbar_extension	lumbar_bending	lumbar_rotation	arm_flex_r	arm_add_r	arm_rot_r	elbow_flex_r	pro_sup_r	arm_flex_l	arm_add_l	arm_rot_l	elbow_flex_l	pro_sup_l
      0.00000000	      0.08186190	     -0.91917318	     -6.40817794	      1.36226908	      0.91655751	     -0.11498135	      0.03139962	      0.75942162	     -0.30475952	      6.00410816	      0.10479146	     19.73631184	      6.27486504	     -6.44616310	     -2.26698590	     -3.14497419	     -7.11670192	      6.44836665	      0.11254523	     18.74811633	      5.92418785	     -6.44616310	     -3.79830556	      1.80824638	      0.90397107	     31.46672901	     -9.01106600	     60.80746633	    124.44569096	     79.19520201	     32.43081791	     -5.28318558	     60.19816025	    123.24004698	     88.76373699
      0.01666670	      0.50077553	     -1.53987851	     -7.14467928	      1.36293144	      0.91676092	     -0.11529888	     -1.48784578	      1.66245765	     -0.32708211	      3.83740771	      0.06697540	     19.59008077	      6.77566516	     -6.70638346	     -4.00803077	     -3.41462438	     -7.82236842	      3.98662258	      0.06957969	     18.45319111	      6.34090483	     -6.70638346	     -6.05200034	      2.85529387	      2.62641482	     34.91454190	    -10.48278608	     68.78159630	    129.28628684	     96.61536065	     35.11797457	     -5.39778584	     58.93396894	    127.41826480	    103.93975393
      0.03333330	      0.98572649	     -1.70249708	     -7.22704145	      1.36213157	      0.91773497	     -0.11571418	     -2.08268322	      1.94776383	     -0.41980267	      3.56991541	      0.06230678	     19.25141947	      7.02582924	     -6.74000704	     -5.01839448	     -3.38132515	     -8.20780915	      2.78530751	      0.04861279	     18.03014536	      6.39980720	     -6.74000704	     -7.02878664	      2.94045384	      2.48475635	     35.37724515	     -8.42109840	     67.73610053	    130.33035410	     99.39400984	     36.08912969	     -5.51180988	     58.83252447	    128.06544597	    107.89626940
      0.05000000	      0.89151349	     -1.69658002	     -6.93400811	      1.36110795	      0.91710949	     -0.11633690	     -1.90604497	      1.98160797	     -1.07059362	      3.58737755	      0.06261155	     19.20979356	      7.02980240	     -7.22013041	     -4.94480794	     -3.33974256	     -8.13964791	      2.40898103	      0.04204465	     18.16595140	      6.27289483	     -7.22013041	     -7.17081599	      3.05779519	      2.09244951	     35.48369048	     -6.86952975	     67.57182784	    129.95092652	    100.30627793	     36.66120714	     -5.45628716	     58.51714815	    128.49099884	    108.77738865
      0.06666670	      0.96437433	     -1.61781049	     -6.76812582	      1.36035803	      0.91721714	     -0.11666316	     -1.83780544	      1.92835385	     -1.64901892	      3.79466831	      0.06622946	     19.52088467	      7.36791505	     -7.31290181	     -4.93151277	     -3.25797115	     -8.09639111	      2.42514560	      0.04232678	     18.24742794	      6.18895034	     -7.31290181	     -7.53350528	      3.04544453	      1.99099047	     35.49335613	     -6.08449911	     67.48689413	    129.35644459	    100.59947610	     37.12674129	     -5.18395755	     58.22378611	    128.70774363	    108.08703219
      0.08333330	      0.88651812	     -1.49601024	     -6.75287542	      1.35943511	      0.91723527	     -0.11676094	     -1.56186808	      1.80728627	     -1.98664892	      4.09269527	      0.07143101	     19.58612168	      7.35966392	     -7.35263154	     -4.73928383	     -3.17651547	     -8.17805214	      2.52649061	      0.04409558	     18.26180103	      6.24161527	     -7.35263154	     -7.72543279	      3.01649316	      2.05584150	     35.41250378	     -5.58996377	     67.89644282	    129.04389696	    100.26213511	     37.43657338	     -4.90508007	     57.97104560	    128.77385171	    107.21720576
